<?xml version="1.0" standalone="no"?>
<!DOCTYPE svg PUBLIC "-//W3C//DTD SVG 20010904//EN"
 "http://www.w3.org/TR/2001/REC-SVG-20010904/DTD/svg10.dtd">
<svg version="1.0" xmlns="http://www.w3.org/2000/svg"
 width="260.000000pt" height="260.000000pt" viewBox="0 0 260.000000 260.000000"
 preserveAspectRatio="xMidYMid meet">
<metadata>
Created by potrace 1.14, written by Peter Selinger 2001-2017
</metadata>
<g transform="translate(0.000000,260.000000) scale(0.100000,-0.100000)"
fill="#000000" stroke="none">
<path d="M1180 2273 c-19 -2 -66 -10 -105 -18 l-70 -15 3 -939 2 -940 78 -18
c98 -23 306 -23 407 -1 166 37 329 123 447 236 l59 56 -98 99 c-54 54 -111
105 -126 113 -60 32 -132 -15 -132 -86 0 -32 8 -47 38 -78 l38 -38 -48 -26
c-75 -40 -183 -76 -267 -87 -86 -12 -166 -14 -190 -5 -14 6 -16 84 -16 780 l0
774 98 0 c54 0 125 -5 158 -11 70 -13 199 -61 233 -88 l24 -19 -31 -38 c-41
-50 -42 -92 -4 -135 21 -23 36 -31 65 -32 35 -1 45 7 148 109 l110 109 -56 52
c-63 59 -146 118 -220 155 -141 72 -368 109 -545 91z"/>
<path d="M769 2123 c-246 -164 -409 -428 -441 -717 -25 -221 38 -458 174 -659
72 -107 244 -263 322 -293 15 -6 16 74 16 844 0 468 -4 853 -8 856 -5 3 -33
-11 -63 -31z"/>
</g>
</svg>
