<?xml version="1.0" standalone="no"?>
<!DOCTYPE svg PUBLIC "-//W3C//DTD SVG 20010904//EN"
 "http://www.w3.org/TR/2001/REC-SVG-20010904/DTD/svg10.dtd">
<svg version="1.0" xmlns="http://www.w3.org/2000/svg"
 width="520.000000pt" height="520.000000pt" viewBox="0 0 520.000000 520.000000"
 preserveAspectRatio="xMidYMid meet">
<metadata>
Created by potrace 1.14, written by Peter Selinger 2001-2017
</metadata>
<g transform="translate(0.000000,520.000000) scale(0.100000,-0.100000)"
fill="#000000" stroke="none">
<path d="M269 5177 c-98 -41 -147 -86 -197 -181 l-27 -51 0 -2305 0 -2305 33
-68 c57 -116 151 -189 261 -206 25 -3 1052 -6 2281 -5 2048 1 2240 2 2290 17
70 21 135 73 182 145 74 111 68 -105 66 2437 l-3 2290 -23 47 c-36 71 -93 131
-164 169 l-63 34 -2290 2 -2290 3 -56 -23z m3282 -646 c17 -18 29 -40 29 -56
0 -16 -12 -38 -29 -56 l-29 -29 -922 0 -921 0 -24 25 c-17 16 -25 35 -25 60 0
25 8 44 25 60 l24 25 921 0 922 0 29 -29z m-2459 -5 c102 -50 158 -151 158
-286 l0 -80 1358 2 1357 3 6 95 c6 110 22 153 76 207 55 55 106 76 189 81 93
5 157 -21 218 -89 105 -117 101 -275 -8 -385 -63 -62 -123 -84 -233 -84 l-73
0 2 -1356 3 -1356 85 -2 c100 -3 141 -18 203 -75 152 -140 101 -399 -91 -471
-109 -41 -215 -18 -298 64 -63 64 -84 121 -84 228 l0 78 -1354 0 -1353 0 -6
-85 c-7 -102 -32 -164 -90 -223 -108 -110 -281 -109 -393 3 -113 113 -112 286
3 401 53 54 107 73 217 81 l96 6 0 1354 0 1353 -80 0 c-102 0 -171 25 -227 82
-57 58 -83 118 -83 194 0 130 63 222 185 271 44 18 172 11 217 -11z m-271
-945 l29 -29 0 -917 c0 -636 -3 -922 -11 -936 -16 -31 -66 -49 -101 -37 -61
22 -58 -34 -58 971 l0 919 29 29 c18 17 40 29 56 29 16 0 38 -12 56 -29z
m3684 4 l25 -24 0 -924 c0 -1037 6 -961 -73 -974 -33 -5 -42 -2 -68 22 l-29
29 0 923 0 924 25 24 c33 34 87 34 120 0z m32 -1937 c-20 -13 -27 -9 -27 12 0
18 3 19 20 8 14 -9 16 -14 7 -20z m-73 -101 c-2 -7 5 -22 16 -34 25 -28 26
-43 0 -43 -27 0 -52 49 -36 73 13 20 28 23 20 4z m245 -1 c8 -9 8 -21 1 -40
-10 -28 -20 -32 -36 -16 -6 6 -16 0 -28 -18 -27 -40 -101 -93 -113 -81 -13 13
-1 70 21 104 19 29 31 32 40 10 7 -20 25 -19 33 3 7 20 43 51 59 52 6 0 17 -6
23 -14z m-236 -203 c-7 -2 -19 -2 -25 0 -7 3 -2 5 12 5 14 0 19 -2 13 -5z
m176 -47 c9 -11 9 -15 -1 -19 -20 -7 -37 3 -31 19 7 18 17 18 32 0z m-1101
-432 c35 -24 44 -59 28 -99 -8 -18 -23 -38 -34 -44 -15 -8 -301 -11 -940 -11
l-920 0 -26 31 c-34 40 -33 74 3 110 l29 29 919 0 c826 0 921 -2 941 -16z
m-928 -218 c0 -37 -8 -66 -19 -66 -5 0 -6 74 -2 98 1 1 6 2 11 2 6 0 10 -15
10 -34z"/>
<path d="M902 4364 c-25 -17 -52 -64 -52 -89 0 -35 32 -84 65 -99 19 -9 59
-16 94 -16 l61 0 0 76 c0 73 -1 77 -34 110 -27 27 -42 34 -73 34 -21 0 -49 -7
-61 -16z"/>
<path d="M4178 4360 c-36 -28 -50 -68 -46 -136 l3 -59 59 -3 c100 -5 156 34
156 110 0 32 -7 47 -34 74 -27 27 -42 34 -74 34 -24 0 -49 -8 -64 -20z"/>
<path d="M3310 3986 c0 -2 35 -24 78 -49 208 -120 413 -328 528 -533 20 -35
38 -64 40 -64 2 0 4 146 4 325 l0 325 -325 0 c-179 0 -325 -2 -325 -4z"/>
<path d="M1250 3653 l0 -328 49 82 c127 214 308 395 525 525 l79 48 -326 0
-327 0 0 -327z"/>
<path d="M2455 3969 c-319 -38 -603 -181 -827 -417 -241 -254 -368 -572 -368
-922 0 -356 127 -670 375 -929 204 -212 443 -342 730 -398 121 -23 366 -23
489 1 457 90 839 404 1001 825 61 157 86 278 92 447 6 165 -4 260 -42 409
-127 488 -546 873 -1055 969 -107 21 -291 28 -395 15z m310 -424 c160 -28 296
-93 436 -209 l71 -59 -106 -105 c-94 -94 -109 -106 -140 -106 -48 0 -86 36
-86 81 0 24 10 44 35 72 19 21 35 41 35 43 0 3 -39 23 -87 46 -106 50 -204 72
-324 72 l-89 0 0 -746 0 -747 123 6 c135 5 224 28 317 79 30 17 57 32 59 34 3
3 -11 20 -29 39 -45 46 -47 96 -6 131 53 47 79 36 194 -79 l104 -104 -49 -43
c-71 -64 -203 -147 -275 -174 -156 -59 -396 -77 -545 -42 l-73 18 0 883 0 884
38 11 c112 33 262 38 397 15z m-605 -911 l0 -806 -37 23 c-181 109 -337 314
-405 529 -20 66 -23 95 -23 245 0 178 5 211 57 345 59 153 202 334 336 424 37
25 68 46 70 46 1 0 2 -363 2 -806z"/>
<path d="M1252 1598 l3 -323 308 0 c170 0 313 2 318 6 5 3 -21 22 -57 43 -199
117 -392 309 -519 519 -25 42 -48 77 -51 77 -2 0 -3 -145 -2 -322z"/>
<path d="M3914 1855 c-115 -207 -349 -434 -574 -558 -18 -10 -31 -19 -29 -21
2 -2 149 -1 327 2 l322 5 0 318 c0 176 -2 319 -5 319 -2 0 -20 -29 -41 -65z"/>
<path d="M894 1066 c-38 -38 -44 -77 -19 -126 17 -32 61 -60 95 -60 67 0 110
62 110 159 l0 61 -76 0 c-73 0 -77 -1 -110 -34z"/>
<path d="M4140 1022 c0 -97 33 -141 107 -142 79 0 129 72 99 144 -22 52 -50
66 -133 66 l-73 0 0 -68z"/>
</g>
</svg>
